<svg width="496" height="439" viewBox="0 0 496 439" fill="none" xmlns="http://www.w3.org/2000/svg">
<g clip-path="url(#clip0_502_158)">
<path d="M372.5 28.1666H123.5C95.8333 28.1666 95.8333 56.3333 95.8333 56.3333V225.333C95.8333 253.5 123.5 253.5 123.5 253.5H220.333L192.667 295.75V309.833H303.333V295.75L275.667 253.5H372.5C400.167 253.5 400.167 225.333 400.167 225.333V56.3333C400.167 56.3333 400.167 28.1666 372.5 28.1666ZM372.5 197.167H123.5V56.3333H372.5V197.167Z" fill="black"/>
<path d="M350.505 126.75L299.322 178.999L279.678 159.001L311.495 126.75L279.678 94.4992L299.322 74.5009L350.505 126.75ZM216.322 94.4992L196.678 74.5009L145.495 126.75L196.678 178.999L216.322 159.001L184.505 126.75L216.322 94.4992Z" fill="black"/>
</g>
<path d="M30.717 365.85C30.1337 366.883 29.3003 367.117 28.217 366.55L14.117 358.65C13.2837 358.167 12.867 357.45 12.867 356.5C12.867 355.717 13.2837 355.083 14.117 354.6L28.217 346.75C29.267 346.2 30.1003 346.433 30.717 347.45C31.267 348.517 31.017 349.35 29.967 349.95L16.667 357.3V355.9L30.017 363.4C31.0503 364.017 31.2837 364.833 30.717 365.85ZM44.4357 373C43.8857 373 43.3941 372.792 42.9607 372.375C42.5441 371.942 42.3357 371.45 42.3357 370.9V341.2C42.3357 340.65 42.5441 340.167 42.9607 339.75C43.3941 339.317 43.8857 339.1 44.4357 339.1C44.9857 339.1 45.4691 339.317 45.8857 339.75C46.3191 340.167 46.5357 340.65 46.5357 341.2V353.75H66.9357V341.2C66.9357 340.65 67.1441 340.167 67.5607 339.75C67.9774 339.317 68.4691 339.1 69.0357 339.1C69.5857 339.1 70.0691 339.317 70.4857 339.75C70.9191 340.167 71.1357 340.65 71.1357 341.2V370.9C71.1357 371.45 70.9191 371.942 70.4857 372.375C70.0691 372.792 69.5857 373 69.0357 373C68.4691 373 67.9774 372.792 67.5607 372.375C67.1441 371.942 66.9357 371.45 66.9357 370.9V357.95H46.5357V370.9C46.5357 371.45 46.3191 371.942 45.8857 372.375C45.4691 372.792 44.9857 373 44.4357 373ZM79.9447 372.8C78.6114 372.283 78.2114 371.367 78.7447 370.05L90.6447 340.75C91.1447 339.65 91.9281 339.1 92.9947 339.1H93.0947C94.1781 339.15 94.9114 339.7 95.2947 340.75L107.395 370.05C107.928 371.367 107.545 372.283 106.245 372.8C104.928 373.317 104.011 372.933 103.495 371.65L100.795 365.1H85.2197L82.6447 371.65C82.1281 372.95 81.2281 373.333 79.9447 372.8ZM86.8697 360.9H99.0697L92.8447 345.75L86.8697 360.9ZM124.357 373C120.541 373 117.716 372.092 115.882 370.275C114.066 368.442 113.157 365.617 113.157 361.8V350.3C113.157 346.45 114.066 343.617 115.882 341.8C117.699 339.967 120.507 339.067 124.307 339.1H130.357C133.491 339.1 135.882 339.75 137.532 341.05C139.182 342.333 140.141 344.367 140.407 347.15C140.507 347.85 140.374 348.383 140.007 348.75C139.641 349.117 139.107 349.3 138.407 349.3C137.141 349.3 136.407 348.6 136.207 347.2C136.041 345.667 135.507 344.633 134.607 344.1C133.724 343.567 132.307 343.3 130.357 343.3H124.307C122.541 343.283 121.149 343.483 120.132 343.9C119.132 344.317 118.416 345.042 117.982 346.075C117.566 347.092 117.357 348.5 117.357 350.3V361.8C117.357 363.583 117.566 364.983 117.982 366C118.416 367.017 119.141 367.742 120.157 368.175C121.174 368.592 122.574 368.8 124.357 368.8H130.357C132.307 368.8 133.724 368.533 134.607 368C135.507 367.45 136.041 366.417 136.207 364.9C136.407 363.5 137.141 362.8 138.407 362.8C139.107 362.8 139.641 362.983 140.007 363.35C140.374 363.717 140.507 364.25 140.407 364.95C140.141 367.75 139.182 369.792 137.532 371.075C135.882 372.358 133.491 373 130.357 373H124.357ZM151.272 373C149.872 373 149.172 372.3 149.172 370.9V341.2C149.172 339.8 149.872 339.1 151.272 339.1C152.672 339.1 153.372 339.8 153.372 341.2V353.075L166.122 339.9C167.088 338.867 168.072 338.85 169.072 339.85C170.105 340.817 170.122 341.8 169.122 342.8L158.497 353.775L171.022 369.35C171.872 370.467 171.772 371.45 170.722 372.3C169.638 373.183 168.655 373.083 167.772 372L155.547 356.85L153.372 359.1V370.9C153.372 372.3 152.672 373 151.272 373ZM176.917 372.8C175.584 372.283 175.184 371.367 175.717 370.05L187.617 340.75C188.117 339.65 188.901 339.1 189.967 339.1H190.067C191.151 339.15 191.884 339.7 192.267 340.75L204.367 370.05C204.901 371.367 204.517 372.283 203.217 372.8C201.901 373.317 200.984 372.933 200.467 371.65L197.767 365.1H182.192L179.617 371.65C179.101 372.95 178.201 373.333 176.917 372.8ZM183.842 360.9H196.042L189.817 345.75L183.842 360.9ZM217.964 373C217.264 373 216.739 372.825 216.389 372.475C216.039 372.125 215.864 371.6 215.864 370.9V343.35H206.164C205.464 343.35 204.939 343.175 204.589 342.825C204.239 342.475 204.064 341.95 204.064 341.25C204.064 340.55 204.239 340.025 204.589 339.675C204.939 339.325 205.464 339.15 206.164 339.15H229.764C230.464 339.15 230.989 339.325 231.339 339.675C231.689 340.025 231.864 340.55 231.864 341.25C231.864 341.95 231.689 342.475 231.339 342.825C230.989 343.175 230.464 343.35 229.764 343.35H220.064V370.9C220.064 371.567 219.881 372.083 219.514 372.45C219.164 372.817 218.648 373 217.964 373ZM240.627 373C240.077 373 239.585 372.792 239.152 372.375C238.735 371.942 238.527 371.45 238.527 370.9V341.2C238.527 340.65 238.735 340.167 239.152 339.75C239.585 339.317 240.077 339.1 240.627 339.1C241.177 339.1 241.66 339.317 242.077 339.75C242.51 340.167 242.727 340.65 242.727 341.2V353.75H263.127V341.2C263.127 340.65 263.335 340.167 263.752 339.75C264.169 339.317 264.66 339.1 265.227 339.1C265.777 339.1 266.26 339.317 266.677 339.75C267.11 340.167 267.327 340.65 267.327 341.2V370.9C267.327 371.45 267.11 371.942 266.677 372.375C266.26 372.792 265.777 373 265.227 373C264.66 373 264.169 372.792 263.752 372.375C263.335 371.942 263.127 371.45 263.127 370.9V357.95H242.727V370.9C242.727 371.45 242.51 371.942 242.077 372.375C241.66 372.792 241.177 373 240.627 373ZM287.736 373C283.919 373 281.094 372.092 279.261 370.275C277.444 368.442 276.536 365.617 276.536 361.8V350.25C276.536 346.4 277.453 343.575 279.286 341.775C281.119 339.958 283.936 339.067 287.736 339.1H293.736C297.569 339.1 300.394 340.008 302.211 341.825C304.028 343.642 304.936 346.467 304.936 350.3V361.8C304.936 365.617 304.028 368.442 302.211 370.275C300.394 372.092 297.569 373 293.736 373H287.736ZM287.736 368.8H293.736C295.519 368.8 296.919 368.592 297.936 368.175C298.953 367.742 299.669 367.017 300.086 366C300.519 364.983 300.736 363.583 300.736 361.8V350.3C300.736 348.533 300.519 347.142 300.086 346.125C299.669 345.108 298.953 344.383 297.936 343.95C296.919 343.517 295.519 343.3 293.736 343.3H287.736C285.969 343.283 284.578 343.483 283.561 343.9C282.544 344.317 281.819 345.033 281.386 346.05C280.953 347.067 280.736 348.467 280.736 350.25V361.8C280.736 363.583 280.944 364.983 281.361 366C281.794 367.017 282.519 367.742 283.536 368.175C284.553 368.592 285.953 368.8 287.736 368.8ZM316.213 373C314.813 373 314.113 372.3 314.113 370.9V341.2C314.113 339.8 314.813 339.1 316.213 339.1C316.93 339.1 317.63 339.517 318.313 340.35L338.413 366.25H337.363V341.2C337.363 339.8 338.063 339.1 339.463 339.1C340.863 339.1 341.563 339.8 341.563 341.2V370.9C341.563 372.3 340.863 373 339.463 373C338.713 373 338.013 372.583 337.363 371.75L317.263 345.85H318.313V370.9C318.313 372.3 317.613 373 316.213 373ZM354.055 373C352.655 373 351.955 372.3 351.955 370.9V341.2C351.955 339.8 352.655 339.1 354.055 339.1H372.005C373.405 339.1 374.105 339.8 374.105 341.2C374.105 342.6 373.405 343.3 372.005 343.3H356.155V353.8H366.105C367.505 353.8 368.205 354.5 368.205 355.9C368.205 357.3 367.505 358 366.105 358H356.155V368.8H372.005C373.405 368.8 374.105 369.5 374.105 370.9C374.105 372.3 373.405 373 372.005 373H354.055ZM403.882 373.1C403.332 373.45 402.807 373.558 402.307 373.425C401.807 373.292 401.382 372.95 401.032 372.4L393.282 359.5H386.282V370.9C386.282 372.3 385.582 373 384.182 373C382.782 373 382.082 372.3 382.082 370.9V341.2C382.082 339.8 382.782 339.1 384.182 339.1H395.882C398.932 339.1 401.265 339.917 402.882 341.55C404.515 343.167 405.332 345.5 405.332 348.55V350.05C405.332 352.7 404.715 354.817 403.482 356.4C402.249 357.967 400.465 358.942 398.132 359.325L404.682 370.25C405.315 371.417 405.049 372.367 403.882 373.1ZM386.282 355.3H395.882C397.782 355.3 399.132 354.9 399.932 354.1C400.732 353.3 401.132 351.95 401.132 350.05V348.55C401.132 346.667 400.732 345.325 399.932 344.525C399.132 343.708 397.782 343.3 395.882 343.3H386.282V355.3ZM421.807 373C418.957 373 416.732 372.425 415.132 371.275C413.549 370.125 412.557 368.35 412.157 365.95C412.09 365.217 412.24 364.667 412.607 364.3C412.974 363.933 413.507 363.75 414.207 363.75C414.907 363.75 415.415 363.917 415.732 364.25C416.065 364.583 416.29 365.1 416.407 365.8C416.657 366.95 417.19 367.742 418.007 368.175C418.84 368.592 420.107 368.8 421.807 368.8H429.007C431.157 368.8 432.615 368.417 433.382 367.65C434.165 366.867 434.557 365.417 434.557 363.3C434.557 361.15 434.157 359.683 433.357 358.9C432.557 358.1 431.107 357.7 429.007 357.7H422.807C419.657 357.7 417.315 356.933 415.782 355.4C414.265 353.85 413.507 351.5 413.507 348.35C413.507 345.217 414.257 342.892 415.757 341.375C417.274 339.858 419.607 339.1 422.757 339.1H428.707C431.357 339.1 433.432 339.642 434.932 340.725C436.449 341.808 437.407 343.467 437.807 345.7C437.907 346.417 437.774 346.967 437.407 347.35C437.04 347.717 436.49 347.9 435.757 347.9C435.09 347.9 434.59 347.725 434.257 347.375C433.924 347.025 433.707 346.517 433.607 345.85C433.34 344.867 432.832 344.2 432.082 343.85C431.332 343.483 430.207 343.3 428.707 343.3H422.757C420.757 343.3 419.415 343.658 418.732 344.375C418.049 345.075 417.707 346.4 417.707 348.35C417.707 350.317 418.057 351.667 418.757 352.4C419.457 353.133 420.807 353.5 422.807 353.5H429.007C432.29 353.5 434.732 354.3 436.332 355.9C437.949 357.5 438.757 359.967 438.757 363.3C438.757 366.617 437.957 369.067 436.357 370.65C434.757 372.217 432.307 373 429.007 373H421.807ZM446.701 380.65C445.901 380.65 445.309 380.4 444.926 379.9C444.543 379.4 444.451 378.75 444.651 377.95L454.901 338.15C455.251 337.05 455.934 336.5 456.951 336.5C457.751 336.5 458.343 336.758 458.726 337.275C459.126 337.775 459.201 338.417 458.951 339.2L448.751 379C448.451 380.1 447.768 380.65 446.701 380.65ZM465.214 365.85C464.648 364.833 464.881 364.017 465.914 363.4L479.264 355.9V357.3L465.964 349.95C464.914 349.35 464.664 348.517 465.214 347.45C465.831 346.433 466.664 346.2 467.714 346.75L481.814 354.6C482.648 355.083 483.064 355.717 483.064 356.5C483.064 357.45 482.648 358.167 481.814 358.65L467.714 366.55C466.631 367.117 465.798 366.883 465.214 365.85Z" fill="black"/>
<defs>
<clipPath id="clip0_502_158">
<rect width="332" height="338" fill="white" transform="translate(82)"/>
</clipPath>
</defs>
</svg>
